<svg width="62" height="56" viewBox="0 0 62 56" fill="none" xmlns="http://www.w3.org/2000/svg">
<rect width="62" height="56" rx="10" fill="url(#paint0_linear_31_241)"/>
<path d="M14.06 44H12.512L10.052 41.228V44H8.756V38H10.052V40.652L12.38 38H13.964L11.324 40.94L14.06 44ZM17.2833 44.156C16.4033 44.156 15.6553 43.852 15.0393 43.244C14.4233 42.636 14.1153 41.888 14.1153 41C14.1153 40.112 14.4233 39.364 15.0393 38.756C15.6553 38.148 16.4033 37.844 17.2833 37.844C18.1713 37.844 18.9193 38.148 19.5273 38.756C20.1433 39.364 20.4513 40.112 20.4513 41C20.4513 41.888 20.1433 42.636 19.5273 43.244C18.9193 43.852 18.1713 44.156 17.2833 44.156ZM15.9513 42.356C16.3113 42.716 16.7553 42.896 17.2833 42.896C17.8113 42.896 18.2553 42.716 18.6153 42.356C18.9753 41.996 19.1553 41.544 19.1553 41C19.1553 40.456 18.9753 40.004 18.6153 39.644C18.2553 39.284 17.8113 39.104 17.2833 39.104C16.7553 39.104 16.3113 39.284 15.9513 39.644C15.5913 40.004 15.4113 40.456 15.4113 41C15.4113 41.544 15.5913 41.996 15.9513 42.356ZM25.0192 37.844C25.8432 37.844 26.5472 38.152 27.1312 38.768C27.7152 39.376 28.0072 40.12 28.0072 41C28.0072 41.888 27.7152 42.636 27.1312 43.244C26.5472 43.852 25.8432 44.156 25.0192 44.156C24.1072 44.156 23.4072 43.82 22.9192 43.148V46.4H21.6232V38H22.9192V38.864C23.4072 38.184 24.1072 37.844 25.0192 37.844ZM23.4592 42.38C23.8192 42.74 24.2712 42.92 24.8152 42.92C25.3592 42.92 25.8112 42.74 26.1712 42.38C26.5312 42.012 26.7112 41.552 26.7112 41C26.7112 40.448 26.5312 39.992 26.1712 39.632C25.8112 39.264 25.3592 39.08 24.8152 39.08C24.2712 39.08 23.8192 39.264 23.4592 39.632C23.0992 39.992 22.9192 40.448 22.9192 41C22.9192 41.552 23.0992 42.012 23.4592 42.38ZM32.3194 40.928C32.9594 41.216 33.2794 41.692 33.2794 42.356C33.2794 42.868 33.0714 43.296 32.6554 43.64C32.2394 43.984 31.6594 44.156 30.9154 44.156C29.7074 44.156 28.8914 43.676 28.4674 42.716L29.5234 42.092C29.7394 42.692 30.2074 42.992 30.9274 42.992C31.2634 42.992 31.5274 42.924 31.7194 42.788C31.9114 42.644 32.0074 42.456 32.0074 42.224C32.0074 42.016 31.9314 41.852 31.7794 41.732C31.6274 41.604 31.4154 41.54 31.1434 41.54H30.2914V40.4H30.9274C31.1914 40.4 31.3954 40.34 31.5394 40.22C31.6914 40.092 31.7674 39.92 31.7674 39.704C31.7674 39.496 31.6834 39.328 31.5154 39.2C31.3474 39.064 31.1234 38.996 30.8434 38.996C30.2434 38.996 29.8274 39.26 29.5954 39.788L28.5394 39.188C28.9874 38.292 29.7474 37.844 30.8194 37.844C31.4914 37.844 32.0234 38.016 32.4154 38.36C32.8154 38.696 33.0154 39.108 33.0154 39.596C33.0154 40.196 32.7834 40.64 32.3194 40.928ZM38.682 38H39.678V44H38.406V40.184L35.334 44H34.338V38H35.61V41.804L38.682 38ZM45.2258 38H46.5218V44H45.2258V41.612H42.4778V44H41.1818V38H42.4778V40.388H45.2258V38ZM52.7775 38H54.0735V44H52.7775V43.136C52.2895 43.816 51.5895 44.156 50.6775 44.156C49.8535 44.156 49.1495 43.852 48.5655 43.244C47.9815 42.628 47.6895 41.88 47.6895 41C47.6895 40.112 47.9815 39.364 48.5655 38.756C49.1495 38.148 49.8535 37.844 50.6775 37.844C51.5895 37.844 52.2895 38.18 52.7775 38.852V38ZM49.5255 42.38C49.8855 42.74 50.3375 42.92 50.8815 42.92C51.4255 42.92 51.8775 42.74 52.2375 42.38C52.5975 42.012 52.7775 41.552 52.7775 41C52.7775 40.448 52.5975 39.992 52.2375 39.632C51.8775 39.264 51.4255 39.08 50.8815 39.08C50.3375 39.08 49.8855 39.264 49.5255 39.632C49.1655 39.992 48.9855 40.448 48.9855 41C48.9855 41.552 49.1655 42.012 49.5255 42.38Z" fill="white"/>
<line x1="7" y1="31.5" x2="55" y2="31.5" stroke="white" stroke-opacity="0.3"/>
<defs>
<linearGradient id="paint0_linear_31_241" x1="3" y1="3.18182" x2="66.8309" y2="36.0253" gradientUnits="userSpaceOnUse">
<stop stop-color="#618967"/>
<stop offset="1" stop-color="#72A479"/>
</linearGradient>
</defs>
</svg>
