<svg width="18" height="19" viewBox="0 0 18 19" fill="none" xmlns="http://www.w3.org/2000/svg">
<path d="M17.2552 18.5268L15.8355 5.30012C15.8119 5.08717 15.6226 4.92154 15.4096 4.92154H12.7832V4.11706C12.7832 1.84558 10.9377 0 8.66618 0C6.3947 0 4.54912 1.84558 4.54912 4.11706V4.92154H1.85173C1.63878 4.92154 1.44949 5.08717 1.42583 5.30012L0.006155 18.5268C-0.0175063 18.6451 0.0298162 18.7634 0.1008 18.858C0.171784 18.9527 0.29009 19 0.408397 19H16.853C16.9713 19 17.0896 18.9527 17.1606 18.858C17.2316 18.7634 17.2789 18.6451 17.2552 18.5268ZM12.3573 7.31133C12.5703 7.31133 12.7359 7.47696 12.7359 7.68991C12.7359 7.90286 12.5703 8.06849 12.3573 8.06849C12.1444 8.06849 11.9788 7.90286 11.9788 7.68991C11.9788 7.47696 12.1444 7.31133 12.3573 7.31133ZM5.40092 4.11706C5.40092 2.3188 6.86792 0.851806 8.66618 0.851806C10.4644 0.851806 11.9314 2.3188 11.9314 4.11706V4.92154H5.40092V4.11706ZM4.97502 7.31133C5.18797 7.31133 5.3536 7.47696 5.3536 7.68991C5.3536 7.90286 5.18797 8.06849 4.97502 8.06849C4.76207 8.06849 4.59644 7.90286 4.59644 7.68991C4.59644 7.47696 4.76207 7.31133 4.97502 7.31133ZM0.905283 18.1245L2.23031 5.74969H4.54912V6.53051C4.07589 6.69614 3.74464 7.1457 3.74464 7.66625C3.74464 8.32877 4.28885 8.87298 4.95136 8.87298C5.61388 8.87298 6.15809 8.32877 6.15809 7.66625C6.15809 7.1457 5.82683 6.69614 5.3536 6.53051V5.74969H11.8841V6.53051C11.4109 6.69614 11.0796 7.1457 11.0796 7.66625C11.0796 8.32877 11.6238 8.87298 12.2864 8.87298C12.9489 8.87298 13.4931 8.32877 13.4931 7.66625C13.4931 7.1457 13.1618 6.69614 12.6886 6.53051V5.74969H15.102L16.4271 18.1245H0.905283Z" fill="white"/>
</svg>
